<?xml version="1.0" encoding="UTF-8"?>
<svg id="Layer_1" xmlns="http://www.w3.org/2000/svg" version="1.1" viewBox="0 0 1229.3 1022.2">
<defs><style>path{fill:#fff}</style></defs>
  <!-- Generator: Adobe Illustrator 30.0.0, SVG Export Plug-In . SVG Version: 2.1.1 Build 123)  -->
  <g>
    <path d="M369.8,828.7c.6,0,1,.3,1,1v4.4c0,.6-.4,1-1,1h-22.9c-1.6,0-2.4.8-2.4,2.5v1.6c0,1.6.7,2.3,2.4,2.3h17.1c5.1,0,8,2.9,8,8.1v3.7c0,4.7-2.8,7.5-8.1,7.5h-25.4c-.7,0-1-.3-1-1v-4.4c0-.6.3-1,1-1h24c1.6,0,2.4-.8,2.4-2.5v-1.9c0-1.6-.7-2.3-2.4-2.3h-17.2c-5.1,0-8-2.9-8-8.1v-3.4c0-4.7,2.8-7.5,8.1-7.5h24.3Z"/>
    <path d="M428.1,828.7c.6,0,1,.3,1,1v4.4c0,.6-.4,1-1,1h-20.1c-4.7,0-5.9,1.3-5.9,6.1v.2h25.8c.6,0,1,.3,1,1v4.1c0,.7-.4,1-1,1h-25.8v.5c0,4.8,1.2,6.1,5.9,6.1h20.1c.6,0,1,.4,1,1v4.4c0,.7-.4,1-1,1h-20.1c-9.3,0-12.8-3.3-12.8-12.1v-7.9c0-8.7,3.5-12.1,12.8-12.1h20.1Z"/>
    <path d="M485.8,828.7c.7,0,1,.3,1,1v4.5c0,.7-.3,1-1,1h-20.4c-4.7,0-6.1,1.4-6.1,6.3v6.5c0,4.9,1.4,6.3,6.1,6.3h20.4c.7,0,1,.3,1,1v4.5c0,.7-.3,1-1,1h-20.6c-9.3,0-12.8-3.3-12.8-12.1v-7.9c0-8.8,3.5-12.1,12.8-12.1h20.6Z"/>
    <path d="M515.9,828.7c.7,0,1,.3,1,1v18.3c0,4.9,1.4,6.3,6.1,6.3h12.7c4.7,0,6-1.4,6-6.3v-18.3c0-.7.4-1,1-1h5c.7,0,1,.3,1,1v18.9c0,8.8-3.5,12.1-12.8,12.1h-13.1c-9.3,0-12.8-3.3-12.8-12.1v-18.9c0-.7.3-1,1-1h4.9Z"/>
    <path d="M599,828.7c6.8,0,9.8,3.1,9.8,9.4v2.7c0,5.3-2.1,8.4-6.6,9.3l7.6,9.5c.4.5.1,1.2-.6,1.2h-6.1c-.7,0-1-.2-1.3-.6l-7.3-9.3h-14.5v8.9c0,.7-.3,1-1,1h-4.9c-.7,0-1-.3-1-1v-29.7c0-.9.5-1.4,1.4-1.4h24.5ZM597.6,844.8c3.1,0,4.3-1.1,4.3-3.8v-1.9c0-2.8-1.2-3.9-4.3-3.9h-16.9c-.4,0-.6.1-.6.5v9.2h17.5Z"/>
    <path d="M638.8,828.7c.7,0,1,.3,1,1v30c0,.7-.3,1-1,1h-4.9c-.7,0-1-.3-1-1v-30c0-.7.3-1,1-1h4.9Z"/>
    <path d="M699,828.7c.7,0,1.1.3,1.1,1v4.5c0,.7-.4,1-1.1,1h-14.4v24.5c0,.7-.3,1-1,1h-5c-.6,0-1-.3-1-1v-24.5h-14.4c-.6,0-1-.3-1-1v-4.5c0-.7.4-1,1-1h35.8Z"/>
    <path d="M727.3,828.7c.5,0,.8.1,1.1.5l12,16,12.1-16c.3-.4.6-.5,1.1-.5h6.1c.5,0,.7.5.4.9l-16.4,21.3v8.8c0,.6-.4,1-1.1,1h-4.9c-.7,0-1.1-.4-1.1-1v-8.8l-16.3-21.3c-.3-.5,0-.9.5-.9h6.4Z"/>
    <path d="M782,854.4c.7,0,1,.3,1,1v4.4c0,.7-.3,1-1,1h-4.5c-.7,0-1-.3-1-1v-4.4c0-.7.3-1,1-1h4.5Z"/>
    <path d="M813.2,828.7c.7,0,1,.3,1,1v30c0,.7-.3,1-1,1h-4.9c-.7,0-1-.3-1-1v-30c0-.7.3-1,1-1h4.9Z"/>
    <path d="M865.2,828.7c9.3,0,12.8,3.3,12.8,12.1v7.9c0,8.8-3.5,12.1-12.8,12.1h-14.1c-9.3,0-12.8-3.3-12.8-12.1v-7.9c0-8.7,3.5-12.1,12.8-12.1h14.1ZM845.3,848.2c0,4.8,1.3,6.1,6.1,6.1h13.6c4.8,0,6.1-1.3,6.1-6.1v-6.9c0-4.8-1.3-6.1-6.1-6.1h-13.6c-4.8,0-6.1,1.3-6.1,6.1v6.9Z"/>
  </g>
  <g>
    <path d="M876.3,320.9c-10.2-22.6-18.6-44.4-25.7-65-9.5-9.2-19-18.4-28.5-27.6,1-1,2.5-2.5,4.1-4.6,6.3-8.1,8.7-16.4,11.9-33.3,1.5-8.2,3.1-17.9,4.6-28.9-7,1.4-17.6,4.4-28.9,11.4-7.3,4.5-17.6,10.7-25,23.4-8.1,13.7-8.5,27.3-8.1,34.1-1.5-2-3.1-4.1-4.6-6.5-5.4-8.7-8.1-17.3-9.4-24.1-11.9,6-23.8,11.9-35.8,17.9,5.7,9,14.2,22.9,23.7,40.5,6.2,11.4,10.1,19.3,11.2,21.5,8,15.5,28.6,36.6,84.5,60.7-3.3,10.9-6.5,21.8-9.8,32.6h35.8c4.4-8,8.9-16,13.3-24.1-4.5-9-9-18.3-13.3-28ZM807.7,276.9c-2.5-7.5-4.9-15-7.4-22.5,9,6.7,17.9,13.4,26.9,20.2,4.6,6.7,9.2,13.4,13.9,20.2-11.1-5.9-22.3-11.9-33.4-17.8Z"/>
    <path d="M704.5,239.2c11.6,9.7,25.2,22.9,38.2,40.3,7.9,10.7,14.2,21,19.1,30.3,11.3,9.8,22.5,19.7,33.8,29.5-5.1,19.5-10.1,39-15.2,58.5-10.7-32.9-31.5-78.9-74.1-117.1-7.7-6.9-15.4-12.9-23-18.2,7.1-7.8,14.2-15.6,21.2-23.4Z"/>
    <path d="M665.1,290.8c-4.5,9.2-9,18.5-13.4,27.7,20.4,14.2,46.6,35.5,72,65.9,23.8,28.4,39.5,56,49.9,77.6,1.2-2.4,2.3-4.8,3.5-7.3.2,6.4,0,14.2-1.5,22.8-2.1,12.8-6,23.2-9.5,30.8,4.1-2.4,25.4-15.2,32.7-42.5,7.7-28.7-5.9-51.5-8.2-55.3-2.2,5.3-4.5,10.7-6.7,16-10.9-22.8-28.7-53.6-57.4-84.3-21.6-23.1-43.3-39.8-61.2-51.5Z"/>
    <path d="M633.5,347.1c-.2.8-1.2,4.9-5.2,7.2-2.1,1.2-4.1,1.3-5.2,1.3,9.8,11.2,31.5,39.1,37.7,81.3,4.9,33-1.9,59.6-6.5,73.5,5.9-2.9,11.7-5.9,17.6-8.8,7.9-9,16.4-20.6,23.4-35.1,2-4.1,3.7-8.1,5.2-12,.9,5.6,1.7,11.3,2.6,16.9-16,49.1-32.1,98.2-48.1,147.3h55c.2-2.8.3-7.6-1.5-13.1-1.7-5.5-4.5-9.4-6.3-11.6,20.5-38.9,41-77.8,61.5-116.7-12.5-21.3-31.6-48.7-59.5-76.1-25.4-24.8-50.4-42.1-70.6-54Z"/>
    <path d="M761.4,535.4c4.9-3.8,10.1-8.3,15.4-13.7,8-8.1,14.1-16.2,18.8-23.2,9.9,32.4,19.7,64.7,29.6,97.1,3.1,1.8,8.3,5.6,12.4,12.1,2.6,4.1,3.9,8,4.6,10.8h-47.9c-10.9-27.7-21.8-55.5-32.7-83.2Z"/>
    <path d="M540.3,356.5c14.6,1.2,29.3,2.4,43.9,3.6,9.2,9,19.2,21,27.5,36.5,27.8,52,16.1,105.3,11.4,122.8-8.4.4-16.7.9-25.1,1.3,1.3-23.4.4-67.2-22.9-113.8-10.8-21.6-23.7-38.3-34.8-50.4Z"/>
    <path d="M467.2,364.3c17.7,9.1,53,30.3,80.6,71.9,22,33.1,29.8,65,32.8,83.7-6.6-.7-13.7-1.9-21.1-3.6-2.8-.6-5.5-1.3-8.1-2.1-3.8-7.3-9.3-17.3-16.7-28.6-9.1-14-21.7-33.3-39.9-49.6-11.3-10.2-33.4-26.9-68.9-36.5,5.7-8.6,15-20.2,29.7-29.2,4-2.5,7.9-4.4,11.6-6Z"/>
    <path d="M412,432.6c17,3.5,43.9,11.5,71,31.2,14.4,10.5,25.2,21.7,33,31.2-13,13.7-28,28.1-45.1,42.7-14.2,12.1-28,22.7-41.2,32.1-2.2,8.5-4.3,17.1-6.5,25.6,1.9,3.1,4,7.4,5.5,12.8,1.1,4,1.6,7.5,1.7,10.5h-55.3c4.9-23,9.8-46.1,14.7-69.1,7.8-13.7,15.6-27.5,23.4-41.2,14.3-2.4,28.6-4.9,42.9-7.3-14.2-4-28.3-8.1-42.5-12.1-2.5-8.1-5.1-19.8-4.8-33.8.2-8.7,1.5-16.3,2.9-22.4Z"/>
    <path d="M391.7,445.9c-3.3,16.6-6.6,33.2-10,49.9-11.8,8.1-23.7,16.1-35.6,24.2,4.2-24.4,8.4-48.8,12.6-73.2,14.5-9.1,28.9-18.2,43.4-27.3-1.2,7.6-2.3,15.1-3.5,22.7-2.3,1.3-4.6,2.5-6.9,3.8Z"/>
    <path d="M521.1,523.8c12.4,3.9,24.9,7.9,37.3,11.8-6.8,10.8-13.6,21.7-20.4,32.5,3.5,9.7,6.9,19.4,10.4,29,2.9,1.6,9.1,5.7,12.8,13.4,1.4,3,2.1,5.7,2.4,8h-47.6c-9.6-21.1-19.3-42.2-28.9-63.2,11.3-10.5,22.7-21,34-31.5Z"/>
  </g>
  <g>
    <path d="M341.8,666.1c9.3,0,13.3,4.1,13.5,12.8v16.2c0,8.3-1.5,11-8.4,14.4l-89.3,45.8c-1.2.5-1.5,1.4-1.5,2.5v1.4c0,.8.7,1.4,1.7,1.4h92.9c2.4,0,3.7,1.4,3.7,3.7v16.4c0,2.5-1.4,3.7-3.7,3.7h-109.4c-9.1,0-13.3-4.1-13.3-12.8v-16.4c0-8.3,1.2-11,7.9-14.2l89-45.8c1-.7,1.5-1.4,1.5-2.5v-1.4c0-.8-.7-1.4-1.7-1.4h-91.9c-2.5,0-3.7-1.4-3.7-3.7v-16.4c0-2.5,1.2-3.7,3.7-3.7h109.1Z"/>
    <path d="M499.1,666.1c2.4,0,3.7,1.2,3.7,3.7v16.4c0,2.4-1.4,3.7-3.7,3.7h-74.1c-17.4,0-22,4.9-22,22.6v.8h95.1c2.4,0,3.7,1.2,3.7,3.7v15c0,2.5-1.4,3.7-3.7,3.7h-95.1v2c0,17.7,4.6,22.6,22,22.6h74.1c2.4,0,3.7,1.4,3.7,3.7v16.4c0,2.5-1.4,3.7-3.7,3.7h-74.3c-34.3,0-47.3-12.3-47.3-44.6v-29c0-32.3,13-44.6,47.3-44.6h74.3Z"/>
    <path d="M631.3,666.1c22.8,0,32.1,8.6,32.1,27.9v8.1c0,9.6-3.7,16.7-10.6,21.3,7.8,4.6,11.5,11.8,11.5,22v9.8c0,19.1-8.6,29.2-29.9,29.2h-100.1c-3.4,0-5.1-1.7-5.1-5.1v-108.1c0-3.4,1.7-5.1,5.1-5.1h97.1ZM624,714.2c11,0,14.5-2.4,14.5-9v-5.1c0-7.1-3.9-10.5-12.5-10.5h-69.1c-1.5,0-2.2.7-2.2,2.4v22.1h69.2ZM554.8,758.3c0,1.7.7,2.4,2.2,2.4h69.2c8.6,0,12.5-3.2,12.5-10.6v-5.6c0-7.3-3.7-9.8-14.7-9.8h-69.2v23.6Z"/>
    <path d="M786.7,666.1c25.2,0,36.3,11.3,36.3,34.6v9.8c0,19.6-7.8,31.1-24.5,34.5l28.2,35c1.4,1.7.5,4.4-2.2,4.4h-22.6c-2.7,0-3.5-.7-4.7-2.2l-26.9-34.3h-53.5v32.8c0,2.5-1.2,3.7-3.7,3.7h-18.2c-2.5,0-3.7-1.2-3.7-3.7v-109.4c0-3.4,1.7-5.1,5.1-5.1h90.5ZM781.4,725.5c11.5,0,15.7-4.1,15.7-14.2v-7.1c0-10.3-4.4-14.5-15.7-14.5h-62.5c-1.5,0-2.2.5-2.2,1.9v33.9h64.7Z"/>
    <path d="M925.5,666.1c8.8,0,13.8,2.5,19.4,12.8l55.9,101.5c1.2,2.4.7,3.9-2,3.9h-21.4c-2.2,0-3.2-.5-3.9-2l-11.1-20.6h-80.9l-11,20.6c-.8,1.5-1.7,2-3.9,2h-22.1c-2.7,0-3.2-1.5-2-3.9l55.4-101.5c5.4-10.3,10.6-12.8,17.7-12.8h10ZM950.3,739.7l-26.2-48.5c-.5-.8-1.2-1.2-2-1.2h-1c-.8,0-1.4.3-1.9,1.2l-26,48.5h57.1Z"/>
  </g>
</svg>